<svg xmlns="http://www.w3.org/2000/svg" viewBox="0 0 800 630">
  <!-- 背景 -->
  <rect width="800" height="630" fill="#f5f5f5" rx="10" ry="10"/>
  
  <!-- タイトル -->
  <text x="400" y="40" font-family="Arial" font-size="24" text-anchor="middle" font-weight="bold">CloudPix アーキテクチャ</text>
  
  <!-- AWS クラウド枠 -->
  <rect x="50" y="70" width="700" height="510" fill="#ffffff" stroke="#232F3E" stroke-width="2" rx="15" ry="15"/>
  <text x="70" y="100" font-family="Arial" font-size="18" fill="#232F3E">AWS Cloud</text>
  
  <!-- API Gateway -->
  <rect x="100" y="140" width="140" height="70" fill="#DAE8FC" stroke="#6C8EBF" stroke-width="2" rx="5" ry="5"/>
  <text x="170" y="180" font-family="Arial" font-size="14" text-anchor="middle">API Gateway</text>
  
  <!-- Lambda Functions -->
  <rect x="320" y="120" width="160" height="350" fill="#FFE6CC" stroke="#D79B00" stroke-width="2" rx="5" ry="5"/>
  <text x="400" y="150" font-family="Arial" font-size="16" text-anchor="middle" font-weight="bold">Lambda Functions</text>
  
  <!-- Lambda Upload -->
  <rect x="350" y="170" width="100" height="30" fill="#dae8fc" stroke="#6c8ebf" stroke-width="1" rx="3" ry="3"/>
  <text x="400" y="190" font-family="Arial" font-size="12" text-anchor="middle">Upload</text>
  
  <!-- Lambda List -->
  <rect x="350" y="210" width="100" height="30" fill="#d5e8d4" stroke="#82b366" stroke-width="1" rx="3" ry="3"/>
  <text x="400" y="230" font-family="Arial" font-size="12" text-anchor="middle">List</text>
  
  <!-- Lambda Thumbnail -->
  <rect x="350" y="250" width="100" height="30" fill="#fff2cc" stroke="#d6b656" stroke-width="1" rx="3" ry="3"/>
  <text x="400" y="270" font-family="Arial" font-size="12" text-anchor="middle">Thumbnail</text>
  
  <!-- Lambda Tags -->
  <rect x="350" y="290" width="100" height="30" fill="#f8cecc" stroke="#b85450" stroke-width="1" rx="3" ry="3"/>
  <text x="400" y="310" font-family="Arial" font-size="12" text-anchor="middle">Tags</text>

  <!-- Lambda Cleanup -->
  <rect x="350" y="330" width="100" height="30" fill="#e1d5e7" stroke="#9673a6" stroke-width="1" rx="3" ry="3"/>
  <text x="400" y="350" font-family="Arial" font-size="12" text-anchor="middle">Cleanup</text>
  
  <!-- Middleware Stack -->
  <rect x="350" y="380" width="100" height="60" fill="#e1d5e7" stroke="#9673a6" stroke-width="1" rx="3" ry="3"/>
  <text x="400" y="400" font-family="Arial" font-size="12" text-anchor="middle">Middleware</text>
  <text x="400" y="420" font-family="Arial" font-size="10" text-anchor="middle">認証・ログ・メトリクス</text>
  
  <!-- CloudWatch -->
  <rect x="560" y="120" width="140" height="70" fill="#B3D7FF" stroke="#6C8EBF" stroke-width="2" rx="5" ry="5"/>
  <text x="630" y="160" font-family="Arial" font-size="14" text-anchor="middle">CloudWatch</text>
  
  <!-- X-Ray -->
  <rect x="560" y="200" width="140" height="70" fill="#E6FFCC" stroke="#82B366" stroke-width="2" rx="5" ry="5"/>
  <text x="630" y="240" font-family="Arial" font-size="14" text-anchor="middle">AWS X-Ray</text>
  
  <!-- SNS -->
  <rect x="560" y="280" width="140" height="70" fill="#FFE6CC" stroke="#D79B00" stroke-width="2" rx="5" ry="5"/>
  <text x="630" y="320" font-family="Arial" font-size="14" text-anchor="middle">SNS (Alerts)</text>
  
  <!-- EventBridge -->
  <rect x="560" y="360" width="140" height="70" fill="#D5E8D4" stroke="#82B366" stroke-width="2" rx="5" ry="5"/>
  <text x="630" y="390" font-family="Arial" font-size="14" text-anchor="middle">EventBridge</text>
  <text x="630" y="410" font-family="Arial" font-size="12" text-anchor="middle">(定期実行)</text>
  
  <!-- Amazon Cognito -->
  <rect x="100" y="230" width="140" height="70" fill="#F8CECC" stroke="#B85450" stroke-width="2" rx="5" ry="5"/>
  <text x="170" y="270" font-family="Arial" font-size="14" text-anchor="middle">Amazon Cognito</text>
  
  <!-- DynamoDB -->
  <rect x="100" y="320" width="140" height="70" fill="#E1D5E7" stroke="#9673A6" stroke-width="2" rx="5" ry="5"/>
  <text x="170" y="350" font-family="Arial" font-size="14" text-anchor="middle">DynamoDB</text>
  <text x="170" y="370" font-family="Arial" font-size="12" text-anchor="middle">メタデータ・タグ</text>
  
  <!-- S3 -->
  <rect x="100" y="410" width="140" height="70" fill="#D5E8D4" stroke="#82B366" stroke-width="2" rx="5" ry="5"/>
  <text x="170" y="440" font-family="Arial" font-size="14" text-anchor="middle">S3 Bucket</text>
  <text x="170" y="460" font-family="Arial" font-size="12" text-anchor="middle">画像・サムネイル・アーカイブ</text>
  
  <!-- ECR -->
  <rect x="560" y="450" width="140" height="70" fill="#FFF2CC" stroke="#D6B656" stroke-width="2" rx="5" ry="5"/>
  <text x="630" y="480" font-family="Arial" font-size="14" text-anchor="middle">ECR</text>
  <text x="630" y="500" font-family="Arial" font-size="12" text-anchor="middle">コンテナイメージ</text>
  
  <!-- 接続線 - API Gateway と Lambda -->
  <path d="M 240 175 L 320 175" stroke="#000000" stroke-width="1.5" fill="none" marker-end="url(#arrow)"/>
  
  <!-- 接続線 - Cognito と API Gateway -->
  <path d="M 170 230 L 170 210 L 240 175" stroke="#000000" stroke-width="1.5" fill="none" stroke-dasharray="5,5" marker-end="url(#arrow)"/>
  <text x="190" y="210" font-family="Arial" font-size="10" text-anchor="middle">認証</text>
  
  <!-- 接続線 - Lambda と DynamoDB -->
  <path d="M 320 350 L 240 350" stroke="#000000" stroke-width="1.5" fill="none" marker-end="url(#arrow)"/>
  
  <!-- 接続線 - Lambda と S3 -->
  <path d="M 320 420 L 240 420" stroke="#000000" stroke-width="1.5" fill="none" marker-end="url(#arrow)"/>
  
  <!-- 接続線 - S3 と Lambda Thumbnail -->
  <path d="M 170 410 L 220 380 L 350 265" stroke="#000000" stroke-width="1.5" fill="none" stroke-dasharray="5,5" marker-end="url(#arrow)"/>
  <text x="230" y="380" font-family="Arial" font-size="10" text-anchor="middle">イベント</text>
  
  <!-- 接続線 - Lambda と CloudWatch -->
  <path d="M 480 175 L 560 175" stroke="#000000" stroke-width="1.5" fill="none" marker-end="url(#arrow)"/>
  <text x="520" y="165" font-family="Arial" font-size="10" text-anchor="middle">ログ・メトリクス</text>
  
  <!-- 接続線 - Lambda と X-Ray -->
  <path d="M 480 265 L 560 265" stroke="#000000" stroke-width="1.5" fill="none" marker-end="url(#arrow)"/>
  <text x="520" y="255" font-family="Arial" font-size="10" text-anchor="middle">トレース</text>
  
  <!-- 接続線 - CloudWatch と SNS -->
  <path d="M 630 190 L 630 280" stroke="#000000" stroke-width="1.5" fill="none" stroke-dasharray="5,5" marker-end="url(#arrow)"/>
  <text x="645" y="235" font-family="Arial" font-size="10" text-anchor="middle">アラート</text>
  
  <!-- 接続線 - EventBridge と Lambda Cleanup -->
  <path d="M 560 395 L 450 345" stroke="#000000" stroke-width="1.5" fill="none" stroke-dasharray="5,5" marker-end="url(#arrow)"/>
  <text x="500" y="375" font-family="Arial" font-size="10" text-anchor="middle">定期実行</text>
  
  <!-- 接続線 - ECR と Lambda -->
  <path d="M 560 485 L 480 400" stroke="#000000" stroke-width="1.5" fill="none" stroke-dasharray="5,5" marker-end="url(#arrow)"/>
  <text x="500" y="455" font-family="Arial" font-size="10" text-anchor="middle">イメージ</text>
  
  <!-- マーカー定義 -->
  <defs>
    <marker id="arrow" markerWidth="10" markerHeight="10" refX="9" refY="3" orient="auto" markerUnits="strokeWidth">
      <path d="M0,0 L0,6 L9,3 z" fill="#000000" />
    </marker>
  </defs>
  
  <!-- メトリクスリスト -->
  <rect x="50" y="590" width="700" height="30" fill="#EEEEEE" stroke="#CCCCCC" stroke-width="1" rx="5" ry="5"/>
  <text x="400" y="610" font-family="Arial" font-size="12" text-anchor="middle">
    主要メトリクス: 処理時間 | エラー率 | リクエスト数 | レイテンシー | 画像処理時間 | アーカイブ数
  </text>
</svg>